<svg xmlns="http://www.w3.org/2000/svg" viewBox="0 0 1001 90" class="iconLeft"><path d="M73.583 74.118V15.882h20.735q10.084 0 14.937 4.16 4.916 4.223 4.916 11.912 0 4.6-2.584 8.13-2.584 3.53-7.185 4.412v.063q5.105.945 8.194 4.664 3.088 3.718 3.088 8.571 0 7.5-5.672 11.912-5.61 4.412-15.757 4.412H73.583zm7.059-32.647h13.802q6.24 0 9.265-2.332 3.088-2.332 3.088-7.185 0-9.454-12.353-9.454H80.642v18.97zm0 26.029h15.252q6.176 0 9.265-2.521 3.088-2.521 3.088-7.185t-3.088-7.185q-3.089-2.52-9.265-2.52H80.642V67.5zm57.605 0h35.168v6.618h-42.227V15.882h40.903V22.5h-33.844v18.782h26.344v6.617h-26.344V67.5zm94.349-51.618v36.555q0 11.155-5.862 16.89Q220.873 75 209.718 75q-11.093 0-16.954-5.735-5.862-5.736-5.862-16.828V15.882h7.06v34.79q0 9.139 3.844 13.425 3.844 4.285 11.912 4.285 8.13 0 11.974-4.285 3.845-4.286 3.845-13.425v-34.79h7.059zM258.12 67.5h33.34v6.618h-40.399V15.882h7.059V67.5zm84.58 6.618-6.177-16.135H310.18l-6.177 16.135h-7.437l22.69-58.236h8.382L350.2 74.118h-7.5zm-30-22.752h21.302l-7.878-20.673-2.71-8.13h-.19l-2.583 7.878-7.941 20.925zm87.983-35.484h7.059v58.236h-7.06V47.899h-31.575v26.219h-7.059V15.882h7.06v25.4h31.575v-25.4zM463.96 67.5h35.105v6.618h-42.164V15.882h40.84V22.5h-33.78v18.782h26.28v6.617h-26.28V67.5zm94.286-51.618v36.555q0 11.155-5.861 16.89Q546.524 75 535.432 75q-11.156 0-17.017-5.735-5.861-5.736-5.861-16.828V15.882h7.059v34.79q0 9.139 3.844 13.425 3.845 4.285 11.975 4.285 8.13 0 11.975-4.285 3.781-4.286 3.781-13.425v-34.79h7.059zm65.42 43.299q-2.773 7.437-9.012 11.596Q608.415 75 600.159 75q-8.194 0-14.244-3.655-6.113-3.656-9.39-10.4-3.341-6.743-3.341-15.945 0-9.076 3.34-15.882 3.278-6.807 9.391-10.463Q591.965 15 600.033 15q8.382 0 14.054 3.466 5.673 3.404 8.509 10.147l-6.996 3.215q-1.89-5.105-5.61-7.626-3.718-2.584-9.453-2.584-5.988 0-10.525 2.773-4.475 2.773-6.933 8.067Q580.62 37.752 580.62 45q0 10.966 5.231 17.143 5.231 6.24 14.307 6.24 5.924 0 10.273-3.026 4.286-2.962 6.176-8.823l7.06 2.647zm52.5 14.937-6.176-16.135h-26.408l-6.176 16.135h-7.374l22.626-58.236h8.382l22.626 58.236h-7.5zm-30-22.752h21.24l-7.815-20.673-2.774-8.13h-.189l-2.52 7.878-7.942 20.925zM702.512 67.5h33.403v6.618h-40.462V15.882h7.059V67.5zm75.63-51.618-20.798 35.484v22.752h-7.06V51.366l-20.86-35.484h8.382l16.008 28.236 15.946-28.236h8.382zm31.008 0q8.824 0 14.181 4.79 5.357 4.853 5.357 12.92 0 8.13-5.357 12.92-5.357 4.854-14.18 4.854H795.6v22.752h-7.059V15.882h20.61zm-1.071 28.866q6.807 0 10.02-2.773 3.215-2.773 3.215-8.383 0-5.546-3.214-8.319-3.214-2.773-10.021-2.773h-12.48v22.248h12.48zm75.252-28.866V22.5h-20.294v51.618h-7.059V22.5h-20.294v-6.618h47.647zm57.416 0v36.555q0 11.155-5.861 16.89Q929.024 75 917.932 75q-11.156 0-17.017-5.735-5.861-5.736-5.861-16.828V15.882h7.059v34.79q0 9.139 3.844 13.425 3.845 4.285 11.975 4.285 8.13 0 11.975-4.285 3.781-4.286 3.781-13.425v-34.79h7.059zM977.932 15q15.63 0 22.5 12.353l-6.114 4.916q-2.647-5.798-6.302-8.256-3.656-2.395-10.021-2.395-6.68 0-10.525 2.773-3.845 2.773-3.845 7.122 0 2.836 1.513 4.663 1.512 1.828 4.979 3.215 3.466 1.386 9.643 2.458 11.596 1.89 16.386 5.798 4.79 3.908 4.79 10.777 0 4.916-2.773 8.698-2.773 3.718-7.878 5.798T978.436 75q-8.823 0-15.063-3.466-6.176-3.404-9.454-9.139l6.114-4.979q2.332 5.231 6.995 8.067 4.601 2.9 11.597 2.9 6.87 0 10.967-2.522 4.033-2.52 4.033-7.122 0-3.844-3.53-6.176-3.529-2.269-12.541-3.845-11.66-2.016-16.513-5.86-4.853-3.782-4.853-10.59 0-4.663 2.647-8.634 2.647-3.97 7.626-6.302Q971.377 15 977.931 15zM54.19.681c-10.28 20.094-3.217 5.51-34.172 38.508C1.452 58.981 8.282 75.156 12.526 81.866c-1.275 1.28-6.759 6.588-10.134 6.844L.625 90.134s-.354.713 2.112.511c4.813-.394 9.327-5.275 11.365-7.638C61.687 58.935 33.896 57.61 54.19.681zM38.495 34.055l.365-.662c.122-.176.016.1-.365.662zm-3.543 6.031-20.203 39.34c1.342-6.748 14.086-28.99 20.203-39.34z" fill="#fff"/></svg>