<svg data-v-423bf9ae="" xmlns="http://www.w3.org/2000/svg" viewBox="0 0 1001 90" class="iconLeft"><!----><!----><!----><g data-v-423bf9ae="" id="12e40656-eb45-43cd-8410-013615106800" fill="white" transform="matrix(6.302521336710863,0,0,6.302521336710863,64.06626513820578,-7.941179995718393)"><path d="M1.51 13.02L1.51 3.78L4.80 3.78L4.80 3.78Q6.40 3.78 7.17 4.44L7.17 4.44L7.17 4.44Q7.95 5.11 7.95 6.33L7.95 6.33L7.95 6.33Q7.95 7.06 7.54 7.62L7.54 7.62L7.54 7.62Q7.13 8.18 6.40 8.32L6.40 8.32L6.40 8.33L6.40 8.33Q7.21 8.48 7.70 9.07L7.70 9.07L7.70 9.07Q8.19 9.66 8.19 10.43L8.19 10.43L8.19 10.43Q8.19 11.62 7.29 12.32L7.29 12.32L7.29 12.32Q6.40 13.02 4.79 13.02L4.79 13.02L1.51 13.02ZM2.63 7.84L4.82 7.84L4.82 7.84Q5.81 7.84 6.29 7.47L6.29 7.47L6.29 7.47Q6.78 7.10 6.78 6.33L6.78 6.33L6.78 6.33Q6.78 4.83 4.82 4.83L4.82 4.83L2.63 4.83L2.63 7.84ZM2.63 11.97L5.05 11.97L5.05 11.97Q6.03 11.97 6.52 11.57L6.52 11.57L6.52 11.57Q7.01 11.17 7.01 10.43L7.01 10.43L7.01 10.43Q7.01 9.69 6.52 9.29L6.52 9.29L6.52 9.29Q6.03 8.89 5.05 8.89L5.05 8.89L2.63 8.89L2.63 11.97ZM11.77 11.97L17.35 11.97L17.35 13.02L10.65 13.02L10.65 3.78L17.14 3.78L17.14 4.83L11.77 4.83L11.77 7.81L15.95 7.81L15.95 8.86L11.77 8.86L11.77 11.97ZM26.74 3.78L26.74 9.58L26.74 9.58Q26.74 11.35 25.81 12.26L25.81 12.26L25.81 12.26Q24.88 13.16 23.11 13.16L23.11 13.16L23.11 13.16Q21.35 13.16 20.42 12.25L20.42 12.25L20.42 12.25Q19.49 11.34 19.49 9.58L19.49 9.58L19.49 3.78L20.61 3.78L20.61 9.30L20.61 9.30Q20.61 10.75 21.22 11.43L21.22 11.43L21.22 11.43Q21.83 12.11 23.11 12.11L23.11 12.11L23.11 12.11Q24.40 12.11 25.01 11.43L25.01 11.43L25.01 11.43Q25.62 10.75 25.62 9.30L25.62 9.30L25.62 3.78L26.74 3.78ZM30.79 11.97L36.08 11.97L36.08 13.02L29.67 13.02L29.67 3.78L30.79 3.78L30.79 11.97ZM44.21 13.02L43.23 10.46L39.05 10.46L38.07 13.02L36.89 13.02L40.49 3.78L41.82 3.78L45.40 13.02L44.21 13.02ZM39.45 9.41L42.83 9.41L41.58 6.13L41.15 4.84L41.12 4.84L40.71 6.09L39.45 9.41ZM53.41 3.78L54.53 3.78L54.53 13.02L53.41 13.02L53.41 8.86L48.40 8.86L48.40 13.02L47.28 13.02L47.28 3.78L48.40 3.78L48.40 7.81L53.41 7.81L53.41 3.78ZM63.45 11.97L69.02 11.97L69.02 13.02L62.33 13.02L62.33 3.78L68.81 3.78L68.81 4.83L63.45 4.83L63.45 7.81L67.62 7.81L67.62 8.86L63.45 8.86L63.45 11.97ZM78.41 3.78L78.41 9.58L78.41 9.58Q78.41 11.35 77.48 12.26L77.48 12.26L77.48 12.26Q76.55 13.16 74.79 13.16L74.79 13.16L74.79 13.16Q73.02 13.16 72.09 12.25L72.09 12.25L72.09 12.25Q71.16 11.34 71.16 9.58L71.16 9.58L71.16 3.78L72.28 3.78L72.28 9.30L72.28 9.30Q72.28 10.75 72.89 11.43L72.89 11.43L72.89 11.43Q73.50 12.11 74.79 12.11L74.79 12.11L74.79 12.11Q76.08 12.11 76.69 11.43L76.69 11.43L76.69 11.43Q77.29 10.75 77.29 9.30L77.29 9.30L77.29 3.78L78.41 3.78ZM88.79 10.65L88.79 10.65Q88.35 11.83 87.36 12.49L87.36 12.49L87.36 12.49Q86.37 13.16 85.06 13.16L85.06 13.16L85.06 13.16Q83.76 13.16 82.80 12.58L82.80 12.58L82.80 12.58Q81.83 12.00 81.31 10.93L81.31 10.93L81.31 10.93Q80.78 9.86 80.78 8.40L80.78 8.40L80.78 8.40Q80.78 6.96 81.31 5.88L81.31 5.88L81.31 5.88Q81.83 4.80 82.80 4.22L82.80 4.22L82.80 4.22Q83.76 3.64 85.04 3.64L85.04 3.64L85.04 3.64Q86.37 3.64 87.27 4.19L87.27 4.19L87.27 4.19Q88.17 4.73 88.62 5.80L88.62 5.80L87.51 6.31L87.51 6.31Q87.21 5.50 86.62 5.10L86.62 5.10L86.62 5.10Q86.03 4.69 85.12 4.69L85.12 4.69L85.12 4.69Q84.17 4.69 83.45 5.13L83.45 5.13L83.45 5.13Q82.74 5.57 82.35 6.41L82.35 6.41L82.35 6.41Q81.96 7.25 81.96 8.40L81.96 8.40L81.96 8.40Q81.96 10.14 82.79 11.12L82.79 11.12L82.79 11.12Q83.62 12.11 85.06 12.11L85.06 12.11L85.06 12.11Q86.00 12.11 86.69 11.63L86.69 11.63L86.69 11.63Q87.37 11.16 87.67 10.23L87.67 10.23L88.79 10.65ZM97.12 13.02L96.14 10.46L91.95 10.46L90.97 13.02L89.80 13.02L93.39 3.78L94.72 3.78L98.31 13.02L97.12 13.02ZM92.36 9.41L95.73 9.41L94.49 6.13L94.05 4.84L94.02 4.84L93.62 6.09L92.36 9.41ZM101.30 11.97L106.60 11.97L106.60 13.02L100.18 13.02L100.18 3.78L101.30 3.78L101.30 11.97ZM113.30 3.78L110.00 9.41L110.00 13.02L108.88 13.02L108.88 9.41L105.57 3.78L106.90 3.78L109.44 8.26L111.97 3.78L113.30 3.78ZM118.22 3.78L118.22 3.78Q119.62 3.78 120.47 4.54L120.47 4.54L120.47 4.54Q121.32 5.31 121.32 6.59L121.32 6.59L121.32 6.59Q121.32 7.88 120.47 8.64L120.47 8.64L120.47 8.64Q119.62 9.41 118.22 9.41L118.22 9.41L116.07 9.41L116.07 13.02L114.95 13.02L114.95 3.78L118.22 3.78ZM118.05 8.36L118.05 8.36Q119.13 8.36 119.64 7.92L119.64 7.92L119.64 7.92Q120.15 7.48 120.15 6.59L120.15 6.59L120.15 6.59Q120.15 5.71 119.64 5.27L119.64 5.27L119.64 5.27Q119.13 4.83 118.05 4.83L118.05 4.83L116.07 4.83L116.07 8.36L118.05 8.36ZM129.99 3.78L129.99 4.83L126.77 4.83L126.77 13.02L125.65 13.02L125.65 4.83L122.43 4.83L122.43 3.78L129.99 3.78ZM139.10 3.78L139.10 9.58L139.10 9.58Q139.10 11.35 138.17 12.26L138.17 12.26L138.17 12.26Q137.24 13.16 135.48 13.16L135.48 13.16L135.48 13.16Q133.71 13.16 132.78 12.25L132.78 12.25L132.78 12.25Q131.85 11.34 131.85 9.58L131.85 9.58L131.85 3.78L132.97 3.78L132.97 9.30L132.97 9.30Q132.97 10.75 133.58 11.43L133.58 11.43L133.58 11.43Q134.19 12.11 135.48 12.11L135.48 12.11L135.48 12.11Q136.77 12.11 137.38 11.43L137.38 11.43L137.38 11.43Q137.98 10.75 137.98 9.30L137.98 9.30L137.98 3.78L139.10 3.78ZM145.00 3.64L145.00 3.64Q147.48 3.64 148.57 5.60L148.57 5.60L147.60 6.38L147.60 6.38Q147.18 5.46 146.60 5.07L146.60 5.07L146.60 5.07Q146.02 4.69 145.01 4.69L145.01 4.69L145.01 4.69Q143.95 4.69 143.34 5.13L143.34 5.13L143.34 5.13Q142.73 5.57 142.73 6.26L142.73 6.26L142.73 6.26Q142.73 6.71 142.97 7.00L142.97 7.00L142.97 7.00Q143.21 7.29 143.76 7.51L143.76 7.51L143.76 7.51Q144.31 7.73 145.29 7.90L145.29 7.90L145.29 7.90Q147.13 8.20 147.89 8.82L147.89 8.82L147.89 8.82Q148.65 9.44 148.65 10.53L148.65 10.53L148.65 10.53Q148.65 11.31 148.21 11.91L148.21 11.91L148.21 11.91Q147.77 12.50 146.96 12.83L146.96 12.83L146.96 12.83Q146.15 13.16 145.08 13.16L145.08 13.16L145.08 13.16Q143.68 13.16 142.69 12.61L142.69 12.61L142.69 12.61Q141.71 12.07 141.19 11.16L141.19 11.16L142.16 10.37L142.16 10.37Q142.53 11.20 143.27 11.65L143.27 11.65L143.27 11.65Q144.00 12.11 145.11 12.11L145.11 12.11L145.11 12.11Q146.20 12.11 146.85 11.71L146.85 11.71L146.85 11.71Q147.49 11.31 147.49 10.58L147.49 10.58L147.49 10.58Q147.49 9.97 146.93 9.60L146.93 9.60L146.93 9.60Q146.37 9.24 144.94 8.99L144.94 8.99L144.94 8.99Q143.09 8.67 142.32 8.06L142.32 8.06L142.32 8.06Q141.55 7.46 141.55 6.38L141.55 6.38L141.55 6.38Q141.55 5.64 141.97 5.01L141.97 5.01L141.97 5.01Q142.39 4.38 143.18 4.01L143.18 4.01L143.18 4.01Q143.96 3.64 145.00 3.64L145.00 3.64Z"></path></g><!----><g data-v-423bf9ae="" id="8d3ebc7a-43a9-408f-ab73-98db65595ac5" transform="matrix(1.0896810955782141,0,0,1.0896810955782141,-23.800292578025314,-8.778521568819677)" stroke="none" fill="white"><path d="M71.572 8.681c-9.434 18.44-2.953 5.056-31.36 35.339-17.038 18.163-10.77 33.007-6.875 39.164-1.17 1.175-6.203 6.046-9.3 6.281l-1.622 1.307s-.325.654 1.938.469c4.417-.362 8.56-4.841 10.43-7.009C78.452 62.141 52.948 60.925 71.572 8.681zM57.168 39.308l.335-.607c.112-.162.015.092-.335.607zm-3.251 5.535l-18.54 36.103c1.231-6.193 12.926-26.604 18.54-36.103z"></path></g><!----></svg>